<mxfile host="app.diagrams.net" modified="2023-12-23T11:01:01.281Z" agent="Mozilla/5.0 (Windows NT 10.0; Win64; x64) AppleWebKit/537.36 (KHTML, like Gecko) Chrome/120.0.0.0 Safari/537.36 Edg/120.0.0.0" etag="pg29h7jcYrLn7rNRum0h" version="22.1.11" type="github">
  <diagram name="Page-1" id="38b20595-45e3-9b7f-d5ca-b57f44c5b66d">
    <mxGraphModel dx="1329" dy="725" grid="1" gridSize="10" guides="1" tooltips="1" connect="1" arrows="1" fold="1" page="1" pageScale="1" pageWidth="1100" pageHeight="850" background="none" math="0" shadow="0">
      <root>
        <mxCell id="0" />
        <mxCell id="1" parent="0" />
        <mxCell id="zY__nuikdP2u57mMD2ts-4" value="" style="verticalLabelPosition=bottom;html=1;verticalAlign=top;align=center;shape=mxgraph.floorplan.doorRight;aspect=fixed;rotation=-90;" vertex="1" parent="1">
          <mxGeometry x="274" y="140" width="86.59" height="92" as="geometry" />
        </mxCell>
        <mxCell id="zY__nuikdP2u57mMD2ts-5" value="" style="verticalLabelPosition=bottom;html=1;verticalAlign=top;align=center;shape=mxgraph.floorplan.wallCorner;fillColor=strokeColor;direction=south;" vertex="1" parent="1">
          <mxGeometry x="274" y="130" width="442" height="100" as="geometry" />
        </mxCell>
        <mxCell id="zY__nuikdP2u57mMD2ts-6" value="" style="verticalLabelPosition=bottom;html=1;verticalAlign=top;align=center;shape=mxgraph.floorplan.doorRight;aspect=fixed;rotation=90;" vertex="1" parent="1">
          <mxGeometry x="636" y="230" width="80" height="85" as="geometry" />
        </mxCell>
        <mxCell id="zY__nuikdP2u57mMD2ts-7" value="" style="verticalLabelPosition=bottom;html=1;verticalAlign=top;align=center;shape=mxgraph.floorplan.wallCorner;fillColor=strokeColor;direction=west" vertex="1" parent="1">
          <mxGeometry x="583" y="315" width="133" height="129" as="geometry" />
        </mxCell>
        <mxCell id="zY__nuikdP2u57mMD2ts-8" value="" style="verticalLabelPosition=bottom;html=1;verticalAlign=top;align=center;shape=mxgraph.floorplan.wallCorner;fillColor=strokeColor;direction=north" vertex="1" parent="1">
          <mxGeometry x="270" y="230" width="188" height="226" as="geometry" />
        </mxCell>
        <mxCell id="zY__nuikdP2u57mMD2ts-9" value="" style="verticalLabelPosition=bottom;html=1;verticalAlign=top;align=center;shape=mxgraph.floorplan.doorDouble;aspect=fixed;rotation=-180;" vertex="1" parent="1">
          <mxGeometry x="457" y="392" width="125" height="66.41" as="geometry" />
        </mxCell>
        <mxCell id="zY__nuikdP2u57mMD2ts-10" value="" style="verticalLabelPosition=bottom;html=1;verticalAlign=top;align=center;shape=mxgraph.floorplan.wall;fillColor=strokeColor;direction=south;" vertex="1" parent="1">
          <mxGeometry x="582" y="444.40999999999997" width="10" height="13" as="geometry" />
        </mxCell>
      </root>
    </mxGraphModel>
  </diagram>
</mxfile>
